<?xml version="1.0" encoding="UTF-8"?>
<svg id="Layer_1" data-name="Layer 1" xmlns="http://www.w3.org/2000/svg" width="838.02" height="94.2" viewBox="0 0 838.02 94.2">
  <g id="Group_1904" data-name="Group 1904">
    <g id="Group_1819" data-name="Group 1819">
      <path id="Path_1" data-name="Path 1" d="M18.57,6.12L2.7,23.3v31.92h14.92l-14.92,15.86v17h14.92l14.92-17h16.24l14.92-16.05h0V6.12H18.57ZM17.62,85.44v-14.35H5.16l12.28-13.79v13.79h12.84l-12.65,14.35ZM33.86,55.03h-16.24v-16.05h16.24v16.05ZM62.38,54.28l-13.6,14.16V23.11H5.16l14.16-15.67h29.46v15.67h13.6v31.16Z"/>
      <g id="Group_1" data-name="Group 1">
        <path id="Path_2" data-name="Path 2" d="M144.83,68.46h-13.97c-4.91.19-9.06-3.4-9.44-8.31v-26.25c-.38-4.91,3.4-9.06,8.31-9.44h15.3c4.91-.38,9.06,3.4,9.44,8.31v26.44c.19,4.91-3.4,9.06-8.31,9.44-.57,0-.94,0-1.32-.19ZM148.99,34.09c.19-2.64-1.7-4.91-4.34-5.1h-13.03c-2.46-.19-4.72,1.7-4.91,4.34v25.68c-.19,2.64,1.7,4.91,4.34,5.1h13.03c2.64.19,4.91-1.89,5.1-4.34v-25.68h-.19Z"/>
        <path id="Path_3" data-name="Path 3" d="M191.1,51.84h-16.43v16.62h-5.29V24.46h21.53c4.91-.38,9.06,3.4,9.44,8.31v9.82c.19,4.91-3.4,9.06-8.31,9.44-.38-.19-.76-.19-.94-.19ZM195.26,34.09c.19-2.64-1.7-4.91-4.34-5.1h-16.24v18.32h15.49c2.64.19,4.91-1.7,5.1-4.34v-8.88Z"/>
        <path id="Path_4" data-name="Path 4" d="M213.39,24.46h28.52v4.53h-23.42v15.11h20.02v4.53h-20.02v15.3h23.23v4.53h-28.33V24.46Z"/>
        <path id="Path_5" data-name="Path 5" d="M269.85,50.71l-11.71,17.75h-5.85l14.54-21.91-14.54-22.1h6.23l11.52,17.75,11.71-17.75h5.85l-14.73,21.91,14.73,22.1h-6.23l-11.52-17.75Z"/>
        <path id="Path_6" data-name="Path 6" d="M333.12,24.46v34.75c.19,4.91-3.4,9.06-8.31,9.44h-15.11c-4.91.19-9.06-3.4-9.44-8.31V24.46h5.29v34.37c-.19,2.64,1.7,4.91,4.34,5.1h13.03c2.64.19,4.91-1.89,5.1-4.34V24.46h5.1Z"/>
        <path id="Path_7" data-name="Path 7" d="M380.33,53.54v5.67c.19,4.91-3.4,9.06-8.31,9.44h-14.54c-4.91.19-9.06-3.4-9.44-8.31v-4.72h5.29v3.59c-.19,2.64,1.7,4.91,4.34,5.1h12.46c2.64.19,4.91-1.7,5.1-4.34v-5.85c.19-2.64-1.7-4.91-4.34-5.1h-13.41c-4.91.19-9.06-3.4-9.44-8.31v-6.8c-.38-4.91,3.4-9.06,8.31-9.44h14.54c4.91-.38,9.06,3.4,9.44,8.31v4.91h-5.29v-3.59c.19-2.64-1.7-4.91-4.34-5.1h-12.46c-2.64-.19-4.91,1.7-5.1,4.34v5.85c-.19,2.64,1.7,4.91,4.34,5.1h13.41c4.91-.19,9.06,3.4,9.44,8.31.19.38.19.57,0,.94Z"/>
      </g>
    </g>
  </g>
  <g>
    <path d="M486.96,6.23c16.98.79,30.12,15.21,29.32,32.2-.77,16.47-14.37,29.42-30.84,29.36V6.23h1.52Z" fill="#ffc83a"/>
    <path d="M483.91,26.4c-16.98.79-30.12,15.21-29.33,32.2.78,16.47,14.38,29.42,30.85,29.36V26.4h-1.52Z" fill="#2526b3"/>
    <path d="M773.09,21.55c0,1.62-.66,3.16-1.83,4.28-.57.55-1.25.97-1.99,1.25-2.36.94-5.03.44-6.87-1.29-1.13-1.12-1.76-2.65-1.73-4.25,0-.79.16-1.58.46-2.3.31-.72.78-1.38,1.35-1.91.58-.53,1.26-.97,1.98-1.29.78-.35,1.62-.51,2.48-.5.85,0,1.68.15,2.45.46.75.28,1.42.72,1.98,1.27.57.53,1.03,1.18,1.35,1.89.29.75.42,1.56.37,2.37h0ZM761.35,65.42v-33.25h10.93v33.25h-10.93ZM679.99,49.19v1.34c0,.42,0,.85,0,1.25h-24.06c.09.9.37,1.76.84,2.54.47.77,1.09,1.43,1.8,1.97.74.57,1.56,1.01,2.46,1.3.92.31,1.89.48,2.85.48,1.52.04,3.02-.29,4.41-.97,1.15-.61,2.16-1.45,2.94-2.5l7.59,4.8c-1.54,2.28-3.67,4.08-6.17,5.24-2.79,1.27-5.85,1.91-8.92,1.84-2.4,0-4.79-.39-7.07-1.18-2.15-.73-4.16-1.91-5.85-3.44-1.7-1.54-3.03-3.42-3.94-5.51-.99-2.37-1.49-4.91-1.43-7.48-.04-2.52.45-5.04,1.4-7.37.86-2.11,2.17-4.02,3.82-5.6,1.64-1.56,3.57-2.78,5.68-3.58,2.27-.86,4.65-1.29,7.06-1.27,2.32-.02,4.59.4,6.77,1.23,1.99.81,3.79,2.02,5.27,3.58,1.53,1.64,2.69,3.57,3.44,5.68.82,2.46,1.19,5.05,1.11,7.65v.02ZM669.82,44.99c0-1.65-.61-3.25-1.73-4.47-1.29-1.32-3.09-2-4.9-1.87-1.02,0-2.01.16-2.95.5-.84.31-1.65.79-2.34,1.38-.66.57-1.21,1.27-1.59,2.04-.39.75-.63,1.58-.69,2.43h14.19ZM637.86,41.98l.03.03-.04-.02h0ZM643.84,35.67l-5.98,6.31c-.91-.87-1.97-1.58-3.09-2.12-1.2-.57-2.48-.86-3.81-.86-.97,0-1.95.18-2.83.61-1.1.5-1.62,1.78-1.12,2.9.24.55.69.97,1.25,1.18,1.51.55,3.07.99,4.65,1.32,1.29.29,2.54.66,3.77,1.14,1.23.48,2.38,1.12,3.43,1.95,1.03.79,1.86,1.8,2.48,2.94.66,1.29,1,2.7.94,4.14.04,1.86-.43,3.68-1.34,5.29-.81,1.4-1.95,2.57-3.32,3.44-1.4.92-2.94,1.56-4.58,1.95-1.65.39-3.36.59-5.07.61-2.72,0-5.42-.44-8-1.3-2.42-.77-4.65-2.08-6.5-3.84l6.14-6.49c1.03,1.1,2.26,2,3.61,2.66,1.4.72,2.96,1.08,4.54,1.07.92,0,1.82-.22,2.63-.63.86-.4,1.38-1.3,1.31-2.24,0-1.01-.65-1.91-1.6-2.26-1.62-.68-3.31-1.19-5.02-1.54-1.17-.28-2.32-.63-3.43-1.07-1.12-.4-2.17-.99-3.09-1.73-.92-.77-1.69-1.73-2.24-2.79-.61-1.25-.92-2.63-.88-4.01-.06-1.8.39-3.58,1.27-5.16.82-1.38,1.93-2.55,3.27-3.44,1.37-.9,2.87-1.56,4.45-1.99,1.58-.4,3.2-.63,4.84-.64,2.48,0,4.96.41,7.31,1.18,2.25.7,4.3,1.87,6.03,3.44ZM569.04,42.93c-.67-.85-1.53-1.51-2.52-1.95-1.03-.48-2.13-.72-3.28-.72-1.08-.02-2.14.22-3.12.68-.92.46-1.74,1.1-2.4,1.87-.66.79-1.18,1.71-1.51,2.7-.4,1.05-.58,2.17-.58,3.29s.18,2.22.55,3.27c.66,2,2.11,3.64,4.02,4.54,1.03.46,2.13.68,3.25.66,1.14,0,2.25-.22,3.32-.64,1.03-.39,1.93-1.01,2.65-1.84l6.06,7.41c-1.58,1.45-3.45,2.52-5.5,3.14-2.2.75-4.54,1.14-6.87,1.14-2.5.02-4.99-.39-7.35-1.19-2.19-.74-4.21-1.91-5.93-3.44-1.68-1.58-3.01-3.51-3.9-5.64-1-2.33-1.49-4.87-1.45-7.41-.04-2.52.46-5.04,1.45-7.35.91-2.11,2.26-4.01,3.95-5.57,1.73-1.56,3.75-2.76,5.94-3.55,2.35-.83,4.81-1.25,7.31-1.23,1.16,0,2.3.09,3.44.29,1.15.2,2.32.51,3.43.9,1.05.37,2.06.83,3.01,1.42.86.51,1.66,1.14,2.37,1.84l-6.31,7.39-.03-.02ZM601.92,61.08c-1.11,1.73-2.7,3.09-4.58,3.9-1.99.92-4.14,1.38-6.31,1.38-2.3.04-4.59-.46-6.67-1.45-1.91-.94-3.62-2.28-4.98-3.92-1.38-1.67-2.42-3.58-3.08-5.64-1.43-4.32-1.43-8.99,0-13.32.7-2.04,1.76-3.91,3.14-5.57,1.36-1.6,3.03-2.88,4.92-3.8,2.04-.96,4.26-1.45,6.5-1.42,2.15-.07,4.3.4,6.21,1.42,1.49.77,2.83,1.82,3.94,3.07h.13v-3.68h10.95v33.37h-10.05v-4.36h-.13v.02ZM585.76,48.66c0,1.07.16,2.13.49,3.16.33,1.01.85,1.97,1.51,2.79.68.81,1.5,1.47,2.46,1.93,1.07.51,2.24.77,3.43.73,1.16.02,2.3-.22,3.33-.73.95-.46,1.81-1.12,2.51-1.93,1.38-1.65,2.15-3.73,2.19-5.88-.02-2.15-.79-4.23-2.19-5.88-.7-.81-1.54-1.47-2.51-1.95-1.06-.5-2.19-.75-3.33-.72-1.19-.04-2.37.22-3.43.72-1.89.94-3.32,2.59-3.97,4.61-.33,1.01-.49,2.08-.49,3.14ZM757.25,56.03c1.02-2.32,1.51-4.83,1.47-7.37h.02c.05-2.52-.43-5.02-1.4-7.33-.96-2.11-2.36-4.01-4.1-5.55-1.71-1.51-3.71-2.68-5.86-3.44-4.61-1.6-9.64-1.6-14.26,0-2.17.75-4.16,1.91-5.86,3.44-1.69,1.54-3.05,3.44-3.96,5.55-1.02,2.32-1.51,4.81-1.47,7.33-.04,2.54.46,5.05,1.47,7.37.91,2.13,2.28,4.02,3.96,5.61,1.71,1.58,3.69,2.79,5.86,3.58,4.59,1.69,9.66,1.69,14.26,0,2.17-.81,4.16-2.02,5.86-3.58,1.73-1.56,3.08-3.47,4-5.61ZM747.64,45.52c.35,1.01.53,2.08.53,3.14h-.04c0,1.07-.16,2.11-.49,3.13-.32,1.03-.83,1.97-1.49,2.79-.68.83-1.52,1.51-2.48,1.97-2.19,1.01-4.68,1.01-6.87,0-.96-.48-1.8-1.14-2.48-1.97-.66-.83-1.17-1.78-1.48-2.79-.34-1.01-.5-2.06-.5-3.13s.16-2.13.5-3.14c.31-.99.79-1.89,1.44-2.7.68-.79,1.51-1.45,2.44-1.91,2.19-.97,4.69-.97,6.88,0,.95.46,1.79,1.12,2.51,1.91.67.79,1.2,1.71,1.53,2.7ZM798.91,47.24v18.16l11.01.13v-20.62c-.02-1.65-.24-3.33-.64-4.94-.41-1.6-1.12-3.11-2.11-4.43-1-1.29-2.28-2.33-3.73-3.05-1.78-.83-3.71-1.25-5.68-1.2-1.1-.02-2.21.15-3.28.46-.99.29-1.93.7-2.84,1.2-.83.48-1.6,1.05-2.27,1.73-.6.64-1.11,1.36-1.56,2.11h-.13v-4.61h-10.6v33.23h11.03v-18.03c0-.92.13-1.82.36-2.7.22-.83.59-1.6,1.11-2.3.47-.66,1.11-1.19,1.84-1.56.79-.4,1.67-.59,2.55-.57.85-.04,1.7.16,2.44.57.63.35,1.14.88,1.49,1.53.39.7.64,1.45.78,2.24.16.88.23,1.76.23,2.66ZM827.44,40.32v12.74c-.08,1.21.23,2.41.9,3.44.84.86,2.04,1.3,3.23,1.18.57,0,1.16-.04,1.74-.13.51-.07,1.03-.2,1.5-.41l.13,8.01c-.93.31-1.89.55-2.87.7-1.13.18-2.28.29-3.43.29-1.91.05-3.81-.22-5.62-.83-1.4-.5-2.65-1.32-3.63-2.43-.93-1.08-1.62-2.37-1.97-3.75-.42-1.58-.62-3.22-.6-4.85v-13.97h-5.33v-8.12h5.25v-8.75h10.77v8.75h7.81v8.12h-7.88ZM708.55,45.52c.33,1.01.49,2.08.49,3.14h-.02c.02,1.07-.13,2.13-.42,3.16-.34,1.03-.83,1.97-1.49,2.79-.66.81-1.49,1.47-2.42,1.93-1.07.51-2.25.77-3.44.74-1.13.02-2.3-.22-3.32-.74-.96-.48-1.8-1.12-2.5-1.93-.7-.81-1.25-1.75-1.62-2.76-.37-.99-.56-2.06-.56-3.13,0-1.07.19-2.13.56-3.14.37-1.01.92-1.93,1.62-2.74.68-.81,1.51-1.47,2.44-1.95,1.05-.5,2.19-.74,3.34-.72,2.27-.07,4.41.88,5.85,2.63.67.81,1.18,1.71,1.49,2.7ZM682.67,32.18v47.03h.02v-.07c6.05,0,10.93-4.89,10.93-10.93v-6.51h.14c1.1,1.51,2.57,2.7,4.27,3.44,1.82.83,3.81,1.23,5.81,1.23,2.32.05,4.59-.44,6.68-1.45,1.91-.94,3.6-2.28,4.98-3.92,1.38-1.67,2.42-3.58,3.08-5.64.72-2.15,1.07-4.41,1.07-6.67s-.37-4.52-1.11-6.65c-.68-2.04-1.74-3.91-3.12-5.57-2.89-3.34-7.11-5.24-11.53-5.16-2.22-.06-4.41.46-6.38,1.51-1.63.85-3.06,2.02-4.25,3.44h-.18v-4.06h-10.42Z" fill="#171713" fill-rule="evenodd"/>
  </g>
  <line x1="421.2" y1="1.13" x2="421.2" y2="93.07" fill="none" stroke="#171713" stroke-miterlimit="10" stroke-width="2.43"/>
</svg>